<?xml version="1.0" encoding="UTF-8" standalone="no"?><!DOCTYPE svg PUBLIC "-//W3C//DTD SVG 1.1//EN" "http://www.w3.org/Graphics/SVG/1.1/DTD/svg11.dtd"><svg width="100%" height="100%" viewBox="0 0 5334 3000" version="1.1" xmlns="http://www.w3.org/2000/svg" xmlns:xlink="http://www.w3.org/1999/xlink" xml:space="preserve" xmlns:serif="http://www.serif.com/" style="fill-rule:evenodd;clip-rule:evenodd;stroke-linejoin:round;stroke-miterlimit:2;"><rect id="Artboard1" x="0" y="0" width="5333.33" height="3000" style="fill:none;"/><clipPath id="_clip1"><rect id="Artboard11" serif:id="Artboard1" x="0" y="0" width="5333.33" height="3000"/></clipPath><g clip-path="url(#_clip1)"><g id="Background"><path d="M-104.167,47.473l325.353,-159.973l876.424,0l1585.71,3225l-2787.48,0l0,-3065.03Zm3405.52,3065.03c-43.522,-141.073 -66.931,-290.756 -66.931,-445.833c0,-838.709 684.708,-1519.63 1528.08,-1519.63c242.215,0 471.344,56.165 675,156.141l0,1809.33l-2136.14,0Zm159.509,-1844.63l1976.64,-611.292l0,545.459c-205.443,-94.92 -434.087,-147.866 -675,-147.866c-889.963,0 -1612.5,722.537 -1612.5,1612.5c0,154.675 21.825,304.293 62.531,445.833l-227.322,0l-1585.71,-3225l1634.47,0l426.891,1380.37Zm1976.64,-739.923l-1901.74,588.13l-379.948,-1228.57l2281.69,0l0,640.443Z" style="fill:url(#_Radial2);"/></g></g><defs><radialGradient id="_Radial2" cx="0" cy="0" r="1" gradientUnits="userSpaceOnUse" gradientTransform="matrix(2541.57,-848.477,1368.01,1576.35,2541.57,1624.34)"><stop offset="0" style="stop-color:#001a38;stop-opacity:1"/><stop offset="1" style="stop-color:#000408;stop-opacity:1"/></radialGradient></defs></svg>